<svg data-name="myPet_logo" xmlns="http://www.w3.org/2000/svg" viewBox="0 0 14 14"><path d="M9.41 0c-1.24.15-1.95 1.51-2 2.69s.32 2.4 1.42 2.64c1 .09 1.72-.81 2-1.67a3.15 3.15 0 0 0-.52-3.32 1.36 1.36 0 0 0-.9-.34ZM4.34.06C3.31.13 2.78 1.34 2.85 2.3a3.05 3.05 0 0 0 2 3.05c1 .1 1.6-.92 1.66-1.81C6.65 2.17 6 .51 4.67.1a1.24 1.24 0 0 0-.33 0Zm8.31 4.14c-1.38.11-2.26 1.59-2.32 2.92-.07.87.49 2 1.44 1.91C13.18 8.88 14 7.3 14 5.93a1.65 1.65 0 0 0-1.35-1.73ZM0 6a3 3 0 0 0 2.42 3.26c.92-.06 1.35-1.12 1.24-2a2.82 2.82 0 0 0-2-2.67A1.35 1.35 0 0 0 0 6Zm7.16 1.27a4 4 0 0 0-3.39 2.18 7.06 7.06 0 0 0-1.14 3.1A1.46 1.46 0 0 0 4.29 14c1.17-.16 2.22-1 3.44-.82 1 .08 1.85.87 2.88.86a1.4 1.4 0 0 0 1.19-2 10.23 10.23 0 0 0-2.05-3.43 3.57 3.57 0 0 0-2.59-1.34Z" style="fill:#4e6663"/></svg>